<?xml version="1.0" encoding="UTF-8" standalone="no"?><svg xmlns="http://www.w3.org/2000/svg" xmlns:xlink="http://www.w3.org/1999/xlink"><symbol id="circle_24x24-viewbox" width="24" height="24" viewBox="0 0 24 24" xmlns="http://www.w3.org/2000/svg"><g><title>Circle</title><path d="m0.98001,11.97848l0,0c0,-6.35131 4.92489,-11.50006 11.00006,-11.50006l0,0c2.91738,0 5.71529,1.21161 7.7782,3.36829c2.06292,2.15668 3.22187,5.08177 3.22187,8.13177l0,0c0,6.35131 -4.92491,11.50007 -11.00006,11.50007l0,0c-6.07517,0 -11.00006,-5.14876 -11.00006,-11.50007zm5.50003,0l0,0c0,3.17566 2.46244,5.75004 5.50003,5.75004c3.03756,0 5.50002,-2.57438 5.50002,-5.75004c0,-3.17565 -2.46246,-5.75003 -5.50002,-5.75003l0,0c-3.03759,0 -5.50003,2.57437 -5.50003,5.75003z" fill-opacity="null" stroke-opacity="null" stroke-width="null"></path></g></symbol><symbol id="delete_70x70" width="70" height="70" xmlns="http://www.w3.org/2000/svg"><g><title>Delete</title><path d="m13.54312,59.04858c0,3.81883 3.10658,6.91192 6.94209,6.91192l27.76834,0c3.8355,0 6.94209,-3.09309 6.94209,-6.91192l0,-41.47146l-41.65251,0l0,41.47146zm45.12355,-51.83933l-12.14865,0l-3.47104,-3.45595l-17.35521,0l-3.47104,3.45595l-12.14865,0l0,6.91191l48.59459,0l0,-6.91191z"></path></g></symbol><symbol id="star_100x100" width="100" height="100" xmlns="http://www.w3.org/2000/svg"><g><title>Star </title><path stroke-width="1.5" stroke-opacity="null" d="m3.5025,39.18082l36.669,0l11.33101,-31.70326l11.33101,31.70326l36.669,0l-29.66579,19.59347l11.33159,31.70326l-29.6658,-19.594l-29.66579,19.594l11.33159,-31.70326l-29.66579,-19.59347l-0.00003,0z"></path></g></symbol><symbol id="star_100x100_viewbox" width="100" height="100" viewBox="0 0 100 100" xmlns="http://www.w3.org/2000/svg"><g><title>Star </title><path stroke-width="1.5" stroke-opacity="null" d="m3.5025,39.18082l36.669,0l11.33101,-31.70326l11.33101,31.70326l36.669,0l-29.66579,19.59347l11.33159,31.70326l-29.6658,-19.594l-29.66579,19.594l11.33159,-31.70326l-29.66579,-19.59347l-0.00003,0z"></path></g></symbol></svg>