<svg width="200" height="200" xmlns="http://www.w3.org/2000/svg">
 <g>
  <title>background</title>
  <rect fill="none" id="canvas_background" height="202" width="202" y="-1" x="-1"/>
  <g display="none" overflow="visible" y="0" x="0" height="100%" width="100%" id="canvasGrid">
   <rect fill="url(#gridpattern)" stroke-width="0" y="0" x="0" height="100%" width="100%"/>
  </g>
 </g>
 <g>
  <title>Layer 1</title>
  <path id="svg_6" d="m11.44749,30.29018l0,0c0,-12.08944 9.02892,-21.88986 20.16666,-21.88986l9.16667,0l0,0l44,0l82.49998,0c5.34855,0 10.47801,2.30624 14.26,6.41139c3.78197,4.10515 5.90667,9.67292 5.90667,15.47847l0,54.72466l0,0l0,32.83479l0,0c0,12.08944 -9.02892,21.88986 -20.16667,21.88986l-82.49998,0l-57.48057,55.66083l13.48057,-55.66083l-9.16667,0c-11.13774,0 -20.16666,-9.80042 -20.16666,-21.88986l0,0l0,-32.83479l0,0l-0.00001,-54.72466z" stroke-width="1.5" stroke="#00007f" fill="#aaaaff"/>
  <rect id="svg_5" height="0" width="1" y="15.4375" x="49.5" stroke-width="1.5" stroke="#bf0000" fill="#ff0000"/>
  <path stroke="#000" id="svg_2" d="m133.28896,41.05342c5.10656,0 9.25117,-3.73031 9.25117,-8.33219c0,-4.60446 -4.14461,-8.33736 -9.25117,-8.33736c-5.11087,0 -9.2569,3.73289 -9.2569,8.33736c0,4.60188 4.1446,8.33219 9.2569,8.33219zm25.94571,35.93444l-8.30211,-27.73266c-0.07742,-0.25179 -0.18638,-0.49195 -0.31826,-0.71404c-0.94333,-2.59792 -3.65144,-4.47921 -6.84986,-4.47921l-21.01261,0c-3.33461,0 -6.13449,2.0427 -6.95881,4.81493c-0.05591,0.12137 -0.10179,0.24921 -0.14336,0.3809l-8.15446,27.73137c-0.54335,1.81802 0.65516,3.68641 2.67656,4.17578c2.01855,0.48679 4.09301,-0.59267 4.63636,-2.41069l6.40399,-21.78404l2.66797,0l-11.62239,39.41425l10.95147,0l0,27.211c0,2.09306 1.88091,3.78841 4.20768,3.78841c2.32104,0 4.20625,-1.69407 4.20625,-3.78841l0,-27.211l3.34608,0l0,27.211c0,2.09306 1.88377,3.78841 4.21056,3.78841c2.32103,0 4.20625,-1.69407 4.20625,-3.78841l0,-27.211l10.94571,0l-11.66539,-39.41425l2.73823,0l6.52154,21.78404c0.54334,1.81802 2.61781,2.89747 4.63634,2.41069c2.01424,-0.48937 3.21275,-2.35904 2.67228,-4.17707l0,0z" stroke-opacity="null" stroke-width="1.5" fill="#ff7f00"/>
  <path stroke="#000" id="svg_1" d="m50.78197,30.86795c0,-4.69449 5.20255,-8.49703 11.62544,-8.49703c6.4229,0 11.62543,3.80254 11.62543,8.49703c0,4.69449 -5.20253,8.49703 -11.62543,8.49703c-6.4229,0 -11.62544,-3.80254 -11.62544,-8.49703zm39.08672,24.05203l0,-4.29125c0,-4.51502 -5.00494,-8.17574 -11.18586,-8.17574l-32.58685,0c-6.17735,0 -11.18586,3.66072 -11.18586,8.17574l0,4.29125c-0.0108,0.0974 -0.01801,0.19745 -0.01801,0.29881l0,24.71678c0,1.92053 2.12877,3.47643 4.75639,3.47643c2.62403,0 4.75817,-1.55591 4.75817,-3.47643l0,-24.35084l3.18952,0l0,27.8299l0.02341,0l0,39.32281c0,2.55631 2.84015,4.63348 6.34124,4.63348c3.5029,0 6.34124,-2.07454 6.34124,-4.63348l0,-39.32281l4.18367,0l0,39.32281c0,2.55631 2.84191,4.63348 6.34123,4.63348c3.50288,0 6.34122,-2.07454 6.34122,-4.63348l0,-39.32281l0.01981,0l0,-27.8299l3.18953,0l0,24.34951c0,1.92053 2.13414,3.47775 4.75818,3.47775c2.62765,0 4.75639,-1.55722 4.75639,-3.47775l0,-24.71678c-0.00179,-0.10267 -0.01261,-0.20009 -0.02342,-0.29749l0,0z" stroke-width="1.5" fill="#ffff00"/>
 </g>
</svg>
