<?xml version="1.0" encoding="UTF-8" standalone="no"?><svg xmlns="http://www.w3.org/2000/svg" xmlns:xlink="http://www.w3.org/1999/xlink"><symbol id="multicolor-image" width="250" height="250" xmlns="http://www.w3.org/2000/svg"><g><rect fill="#fff" id="canvas_background" height="252" width="252" y="-1" x="-1"></rect><g display="none" overflow="visible" id="canvasGrid"><rect fill="url(#gridpattern)" stroke-width="0" y="0" x="0" height="100%" width="100%"></rect></g></g><g><path stroke="#000" id="svg_1" d="m181.76916,213.23788c5.01304,-5.4592 9.2675,-11.96138 11.0645,-19.34387c-5.3739,4.26075 -10.30258,11.1139 -17.79889,10.85427c-5.65926,0.33873 -12.40071,0.34446 -16.38437,-4.59161c-8.90234,-7.4656 -11.29375,-22.38691 -3.98355,-31.88792c5.00253,-6.8601 13.73803,-9.76898 21.75471,-8.74004c5.05114,-2.23512 -0.98795,-7.89465 -1.59527,-11.42678c-3.75939,-12.81241 5.09709,-28.18066 18.11985,-29.65662c9.34066,-1.39847 18.47193,4.90748 23.04246,13.09127c2.48376,5.72635 1.18963,12.22534 0.61015,18.16603c-1.95139,2.98542 -6.94914,10.20792 0.18282,9.63902c7.05146,-0.11638 14.49789,2.04253 19.14769,7.89035c6.80117,7.87584 7.42503,20.89073 0.58235,28.93839c-3.61956,4.90178 -9.05105,8.82496 -15.19851,8.60654c-6.01693,0.63346 -12.53236,-0.72783 -16.79905,-5.50898c-1.81975,-1.32982 -6.27874,-6.35416 -6.2772,-5.25231c4.45688,9.6831 9.49664,19.73889 18.41243,25.73925c3.18554,2.67118 -4.85207,0.83471 -6.79783,1.37914c-11.78908,0.01087 -23.57812,0.02195 -35.3672,0.03286c2.42829,-2.64303 4.85673,-5.28594 7.28492,-7.92897l0,-0.00001z" stroke-width="1.5" fill="#00007f"></path><path stroke="#000" id="svg_2" d="m106.54536,168.67636c-46.68891,-37.5243 -63.38206,-61.2615 -63.51735,-90.32013c-0.12337,-26.4905 20.48345,-52.05773 41.8388,-51.91029c10.66391,0.07377 33.53866,9.82373 41.63869,17.748c4.08127,3.9927 6.01436,3.59898 15.10088,-3.07567c24.72966,-18.16555 48.87843,-18.54684 64.51823,-1.01861c24.99573,28.0138 20.44498,61.46738 -13.08185,96.16779c-17.82479,18.44875 -56.75023,51.17787 -60.8669,51.17787c-1.25265,0 -12.78636,-8.44605 -25.6305,-18.76896l0,0.00001z" stroke-width="2.5" fill="#ff0000"></path><path stroke="#000" id="svg_3" d="m44.76339,221.07684c7.34912,-6.20034 12.7231,-14.05207 17.22601,-22.0078c2.75073,-3.17311 0.14647,-5.9491 -3.60018,-3.25836c-9.62884,5.62067 -22.73592,7.54816 -33.16113,2.42029c-11.78531,-5.32796 -17.09986,-17.99727 -14.42588,-29.03655c1.6934,-11.18734 11.00677,-19.95645 21.11887,-26.25552c11.61597,-7.2648 24.15978,-13.50131 34.7761,-21.91361c4.43278,0.07769 7.76884,6.15914 12.53948,7.76843c12.66733,8.2488 27.67926,14.32059 37.65441,25.35076c5.03962,6.2851 7.91191,14.02444 8.23258,21.67488c-1.53547,10.37456 -8.61124,21.31587 -20.81349,24.27034c-10.54847,2.79037 -21.40124,-0.74839 -30.5935,-5.25047c-1.1228,-0.21067 -5.24108,-3.04727 -3.6089,-0.8428c5.49542,9.85956 11.51656,19.64988 20.23671,27.65529c0.51255,1.0115 4.53228,3.41127 2.39297,3.37315c-17.905,0 -35.80995,0 -53.71496,0c1.91359,-1.31599 3.82725,-2.63202 5.74092,-3.94802l0,0z" stroke-opacity="null" stroke-width="3.5"></path></g></symbol></svg>