<?xml version="1.0" encoding="UTF-8" standalone="no"?><svg xmlns="http://www.w3.org/2000/svg" xmlns:xlink="http://www.w3.org/1999/xlink"><symbol id="star-no-viewBox" version="1.1" xmlns="http://www.w3.org/2000/svg" width="24" height="24"><path d="M12 17.27l6.18 3.73-1.64-7.030 5.46-4.73-7.19-0.61-2.81-6.63-2.81 6.63-7.19 0.61 5.46 4.73-1.64 7.030z"></path></symbol><symbol id="delete" version="1.1" xmlns="http://www.w3.org/2000/svg" width="24" height="24" viewBox="0 0 24 24"><path d="M6 19c0 1.105 0.895 2 2 2h8c1.105 0 2-0.895 2-2v-12h-12v12zM19 4h-3.5l-1-1h-5l-1 1h-3.5v2h14v-2z"></path></symbol><symbol id="star" version="1.1" xmlns="http://www.w3.org/2000/svg" width="24" height="24" viewBox="0 0 24 24"><path d="M12 17.27l6.18 3.73-1.64-7.030 5.46-4.73-7.19-0.61-2.81-6.63-2.81 6.63-7.19 0.61 5.46 4.73-1.64 7.030z"></path></symbol></svg>