<svg width="24" height="24" viewBox="0 0 24 24" xmlns="http://www.w3.org/2000/svg">
  <g>
    <path id="svg_1" d="m0.98001,11.97848l0,0c0,-6.35131 4.92489,-11.50006 11.00006,-11.50006l0,0c2.91738,0 5.71529,1.21161 7.7782,3.36829c2.06292,2.15668 3.22187,5.08177 3.22187,8.13177l0,0c0,6.35131 -4.92491,11.50007 -11.00006,11.50007l0,0c-6.07517,0 -11.00006,-5.14876 -11.00006,-11.50007zm5.50003,0l0,0c0,3.17566 2.46244,5.75004 5.50003,5.75004c3.03756,0 5.50002,-2.57438 5.50002,-5.75004c0,-3.17565 -2.46246,-5.75003 -5.50002,-5.75003l0,0c-3.03759,0 -5.50003,2.57437 -5.50003,5.75003z" fill-opacity="null" stroke-opacity="null" stroke-width="null" stroke="null" fill="#404040"/>
  </g>
</svg>
